<?xml version="1.0" encoding="utf-8"?>
<!-- Generator: Adobe Illustrator 17.0.0, SVG Export Plug-In . SVG Version: 6.00 Build 0)  -->
<!DOCTYPE svg PUBLIC "-//W3C//DTD SVG 1.1//EN" "http://www.w3.org/Graphics/SVG/1.1/DTD/svg11.dtd">
<svg version="1.1" id="Layer_1" xmlns="http://www.w3.org/2000/svg" xmlns:xlink="http://www.w3.org/1999/xlink" x="0px" y="0px"
	 width="80px" height="40px" viewBox="0 0 80 40" enable-background="new 0 0 80 40" xml:space="preserve">
<g>
	<path fill="#000033" d="M30.563,21.334v-0.039c0-3.926,3.097-7.141,7.358-7.141c4.261,0,7.318,3.176,7.318,7.102v0.039
		c0,3.926-3.097,7.141-7.358,7.141S30.563,25.26,30.563,21.334z M42.064,21.334v-0.039c0-2.367-1.736-4.34-4.182-4.34
		c-2.446,0-4.143,1.933-4.143,4.301v0.039c0,2.367,1.736,4.34,4.182,4.34C40.368,25.635,42.064,23.702,42.064,21.334z"/>
	<path fill="#000033" d="M48.12,25.201V20.19h-1.263v-2.565h1.263v-2.703h2.999v2.703h2.486v2.565h-2.486v4.517
		c0,0.69,0.296,1.026,0.967,1.026c0.552,0,1.045-0.138,1.479-0.375v2.407c-0.631,0.375-1.361,0.612-2.367,0.612
		C49.363,28.377,48.12,27.647,48.12,25.201z"/>
	<path fill="#000033" d="M55.814,17.626h2.999v2.131c0.611-1.46,1.598-2.407,3.373-2.328v3.137h-0.158
		c-1.992,0-3.215,1.203-3.215,3.728v3.906h-2.999V17.626z"/>
	<path fill="#000033" d="M62.936,25.161v-0.039c0-2.308,1.756-3.373,4.261-3.373c1.065,0,1.835,0.178,2.584,0.434v-0.178
		c0-1.243-0.769-1.933-2.269-1.933c-1.144,0-1.953,0.217-2.92,0.572l-0.749-2.288c1.164-0.513,2.308-0.848,4.103-0.848
		c1.637,0,2.821,0.434,3.571,1.184c0.789,0.789,1.144,1.953,1.144,3.373v6.135h-2.9v-1.144c-0.73,0.809-1.736,1.341-3.196,1.341
		C64.573,28.397,62.936,27.253,62.936,25.161z M69.821,24.471v-0.533c-0.513-0.237-1.184-0.395-1.914-0.395
		c-1.282,0-2.071,0.513-2.071,1.46v0.039c0,0.809,0.671,1.282,1.637,1.282C68.874,26.325,69.821,25.556,69.821,24.471z"/>
</g>
<g>
	<g>
		<path fill="#3399CC" d="M18.556,29.363l8.053-8.053c0.08-0.69,0.081-1.387,0.004-2.077L18.52,11.14
			c-0.666-0.074-1.338-0.076-2.005-0.004l-8.134,8.134c-0.072,0.666-0.07,1.339,0.004,2.005l8.093,8.093
			C17.17,29.444,17.867,29.442,18.556,29.363z"/>
		<path fill="#006666" d="M13.868,23.918c-1.531-1.531-3.469-2.405-5.466-2.628l8.093,8.093
			C16.273,27.386,15.399,25.449,13.868,23.918z"/>
		<path fill="#006666" d="M21.148,23.902c-1.54,1.54-2.416,3.492-2.632,5.502l8.134-8.134C24.64,21.485,22.688,22.361,21.148,23.902
			z"/>
		<path fill="#33CCFF" d="M21.164,16.621c1.531,1.531,3.469,2.405,5.465,2.628l-8.093-8.093
			C18.759,13.152,19.633,15.09,21.164,16.621z"/>
		<path fill="#33CCFF" d="M13.651,16.852c1.522-1.522,2.395-3.446,2.963-5.769l-8.053,8.053
			C10.205,19.247,12.129,18.374,13.651,16.852z"/>
	</g>
	<circle fill="#FFFFFF" cx="17.5" cy="20.253" r="2.295"/>
</g>
</svg>
